<?xml version="1.0" standalone="no"?>
<!DOCTYPE svg PUBLIC "-//W3C//DTD SVG 20010904//EN"
 "http://www.w3.org/TR/2001/REC-SVG-20010904/DTD/svg10.dtd">
<svg version="1.0" xmlns="http://www.w3.org/2000/svg"
 width="400.000000pt" height="400.000000pt" viewBox="0 0 400.000000 400.000000"
 preserveAspectRatio="xMidYMid meet">
<metadata>
Created by potrace 1.11, written by Peter Selinger 2001-2013
</metadata>
<g transform="translate(0.000000,400.000000) scale(0.100000,-0.100000)"
fill="#000000" stroke="none">
<path d="M0 2000 l0 -2000 2000 0 2000 0 0 2000 0 2000 -2000 0 -2000 0 0
-2000z m1431 805 c82 -17 178 -50 241 -82 l48 -23 -80 -160 c-44 -88 -83 -160
-86 -160 -3 0 -26 14 -51 31 -159 110 -363 82 -363 -50 0 -64 47 -97 214 -150
257 -82 374 -184 411 -357 26 -124 11 -255 -42 -364 -58 -119 -199 -220 -359
-256 -117 -26 -330 -16 -444 21 -85 27 -216 90 -257 123 l-21 17 82 153 c46
84 87 157 93 163 6 6 29 -6 65 -34 89 -69 168 -100 268 -104 96 -5 137 10 174
60 30 41 28 107 -4 142 -34 37 -62 50 -234 112 -162 58 -225 92 -282 155 -62
69 -88 138 -92 249 -5 112 8 183 47 265 69 144 201 236 376 263 72 12 205 5
296 -14z m1507 -52 c5 -16 134 -354 286 -752 152 -398 276 -728 276 -733 0 -4
-98 -7 -217 -6 l-218 3 -44 128 -43 127 -273 0 -273 0 -43 -127 -44 -128 -217
-3 c-120 -1 -218 2 -218 6 0 5 124 335 276 733 152 398 281 736 286 752 l10
27 223 0 223 0 10 -27z"/>
<path d="M2626 2075 c-42 -119 -76 -221 -76 -226 0 -5 67 -9 155 -9 89 0 155
4 155 9 0 11 -148 433 -154 438 -2 2 -38 -94 -80 -212z"/>
</g>
</svg>
